<svg width="200" height="60" viewBox="0 0 200 60" fill="none" xmlns="http://www.w3.org/2000/svg">
<g clip-path="url(#clip0_1086_5861)">
<path d="M69.7507 16.7926V20.4778C68.1441 19.4593 66.3158 18.9593 64.2659 18.9593C62.9363 18.9593 61.9021 19.2556 61.145 19.8482C60.3878 20.4407 60 21.2185 60 22.1815C60 23.1445 60.3694 23.9222 61.1265 24.4963C61.8652 25.0704 63.0102 25.7 64.5614 26.3852C65.5771 26.8111 66.3527 27.2 66.9252 27.5148C67.4977 27.8296 68.1441 28.2741 68.8643 28.8296C69.603 29.4037 70.1385 30.0704 70.4894 30.8482C70.8403 31.6259 71.0065 32.5333 71.0065 33.5333C71.0065 35.6815 70.2493 37.3667 68.735 38.5889C67.2207 39.8111 65.2632 40.4407 62.8624 40.4407C60.1847 40.4407 57.9871 39.9222 56.2327 38.8852V35.0148C58.1348 36.4407 60.3324 37.1445 62.8255 37.1445C64.1551 37.1445 65.1893 36.8296 65.9649 36.2185C66.7405 35.6074 67.1099 34.7556 67.1099 33.663C67.1099 33.0148 66.8883 32.4222 66.4266 31.8667C65.9649 31.3296 65.4848 30.9222 64.9492 30.6445C64.4137 30.3667 63.6196 29.9963 62.567 29.4963C61.9391 29.2 61.4959 28.9963 61.2558 28.8852C60.9972 28.7556 60.591 28.5519 60.0185 28.2371C59.446 27.9222 59.0212 27.663 58.7442 27.4407C58.4672 27.2185 58.1164 26.9222 57.7101 26.5333C57.3038 26.1445 57.0083 25.7556 56.8236 25.3852C56.639 24.9963 56.4728 24.5519 56.325 24.0333C56.1773 23.5148 56.085 22.9593 56.085 22.3482C56.085 20.2741 56.8421 18.6445 58.338 17.4222C59.8338 16.2185 61.7729 15.6074 64.1551 15.6074C66.3527 15.6259 68.2179 16.0148 69.7507 16.7926Z" fill="#040081"/>
<path d="M74.6263 26.237V22.7925C76.0483 21.9777 77.9135 21.5703 80.2588 21.5703C85.0419 21.5703 87.4426 23.9036 87.4426 28.5518V40.1999H83.9523V38.0333C83.0105 39.5703 81.3669 40.3481 79.0031 40.3481C77.2671 40.3481 75.8821 39.8481 74.8295 38.8481C73.7768 37.8481 73.2598 36.5703 73.2598 35.0333C73.2598 33.274 73.9246 31.9036 75.2358 30.9222C76.5654 29.9407 78.4121 29.4592 80.7944 29.4592H83.823V28.4036C83.823 27.1444 83.5275 26.1999 82.9181 25.5703C82.3087 24.9407 81.3115 24.6073 79.9264 24.6073C77.9874 24.6073 76.2145 25.1444 74.6263 26.237ZM83.823 32.0147H81.0899C79.7418 32.0147 78.7261 32.274 78.0428 32.811C77.3595 33.3481 77.0086 34.0148 77.0086 34.8296C77.0086 35.6814 77.2671 36.3296 77.8027 36.811C78.3382 37.2925 79.0954 37.5333 80.1111 37.5333C81.2561 37.5333 82.1794 37.2185 82.8258 36.5703C83.4906 35.9407 83.823 35.0888 83.823 34.0518V32.0147Z" fill="#040081"/>
<path d="M94.6443 14.627V24.9973C95.6785 22.7381 97.5622 21.5899 100.314 21.5899C102.087 21.5899 103.527 22.1455 104.598 23.2566C105.688 24.3677 106.223 25.9047 106.223 27.8862V40.1825H102.678V28.6084C102.678 27.3492 102.364 26.3862 101.717 25.701C101.071 25.0158 100.24 24.664 99.2057 24.664C98.0054 24.664 96.9343 25.127 96.0109 26.0344C95.0876 26.9418 94.6259 28.3492 94.6259 30.2381V40.1825H91.0986V14.627H94.6443Z" fill="#040081"/>
<path d="M110.323 26.237V22.7925C111.745 21.9777 113.61 21.5703 115.955 21.5703C120.738 21.5703 123.139 23.9036 123.139 28.5518V40.1999H119.649V38.0333C118.707 39.5703 117.063 40.3481 114.699 40.3481C112.963 40.3481 111.578 39.8481 110.526 38.8481C109.473 37.8481 108.956 36.5703 108.956 35.0333C108.956 33.274 109.621 31.9036 110.932 30.9222C112.262 29.9407 114.108 29.4592 116.491 29.4592H119.519V28.4036C119.519 27.1444 119.224 26.1999 118.614 25.5703C118.005 24.9407 117.008 24.6073 115.623 24.6073C113.684 24.6073 111.911 25.1444 110.323 26.237ZM119.519 32.0147H116.786C115.438 32.0147 114.422 32.274 113.739 32.811C113.056 33.3481 112.705 34.0148 112.705 34.8296C112.705 35.6814 112.963 36.3296 113.499 36.811C114.035 37.2925 114.792 37.5333 115.807 37.5333C116.952 37.5333 117.876 37.2185 118.522 36.5703C119.187 35.9407 119.519 35.0888 119.519 34.0518V32.0147Z" fill="#040081"/>
<path d="M130.342 21.8481V24.774C131.376 22.6444 133.093 21.5888 135.494 21.5888C138.227 21.5888 139.982 22.774 140.757 25.1259C141.256 23.9962 141.995 23.1259 142.955 22.4962C143.915 21.8851 145.005 21.5703 146.205 21.5703C148.089 21.5703 149.511 22.1259 150.471 23.237C151.45 24.3481 151.93 25.8851 151.93 27.8296V40.1629H148.403V28.5888C148.403 25.9592 147.35 24.6444 145.226 24.6444C144.174 24.6444 143.232 25.1073 142.401 26.0518C141.57 26.9962 141.164 28.3851 141.164 30.2184V40.1629H137.636V28.5888C137.636 25.9592 136.565 24.6444 134.423 24.6444C133.389 24.6444 132.447 25.1073 131.616 26.0518C130.767 26.9962 130.36 28.3851 130.36 30.2184V40.1629H126.833V21.8296H130.342V21.8481Z" fill="#040081"/>
<path d="M156.104 26.237V22.7925C157.526 21.9777 159.391 21.5703 161.736 21.5703C166.519 21.5703 168.92 23.9036 168.92 28.5518V40.1999H165.43V38.0333C164.488 39.5703 162.844 40.3481 160.481 40.3481C158.745 40.3481 157.36 39.8481 156.307 38.8481C155.254 37.8481 154.737 36.5703 154.737 35.0333C154.737 33.274 155.402 31.9036 156.713 30.9222C158.043 29.9407 159.89 29.4592 162.272 29.4592H165.301V28.4036C165.301 27.1444 165.005 26.1999 164.396 25.5703C163.786 24.9407 162.789 24.6073 161.404 24.6073C159.446 24.6073 157.674 25.1444 156.104 26.237ZM165.301 32.0147H162.567C161.219 32.0147 160.204 32.274 159.52 32.811C158.837 33.3481 158.486 34.0148 158.486 34.8296C158.486 35.6814 158.745 36.3296 159.28 36.811C159.816 37.2925 160.573 37.5333 161.589 37.5333C162.734 37.5333 163.657 37.2185 164.303 36.5703C164.968 35.9407 165.301 35.0888 165.301 34.0518V32.0147Z" fill="#040081"/>
<path d="M177.156 24.6089V34.7015C177.156 36.4608 178.006 37.3497 179.686 37.3497C180.665 37.3497 181.496 37.0904 182.179 36.5534V39.7386C181.385 40.1645 180.406 40.3867 179.261 40.3867C175.494 40.3867 173.592 38.4608 173.592 34.6275V24.6089H170.748V21.8682H173.592V17.3867H177.156V21.8682H181.958V24.6089H177.156Z" fill="#040081"/>
<path d="M185.318 17.8304C184.894 17.4045 184.69 16.886 184.69 16.2564C184.69 15.6267 184.894 15.1082 185.318 14.6638C185.743 14.2378 186.26 14.0156 186.888 14.0156C187.516 14.0156 188.033 14.2378 188.476 14.6638C188.901 15.0897 189.123 15.6267 189.123 16.2564C189.123 16.8675 188.901 17.386 188.476 17.8119C188.051 18.2378 187.516 18.4601 186.888 18.4601C186.26 18.4601 185.743 18.2378 185.318 17.8304ZM185.134 40.1823V21.849H188.698V40.1823H185.134Z" fill="#040081"/>
<path d="M197.304 18.5524L196.565 17.3487H196.14V18.5524H195.66V15.3672H196.547C196.916 15.3672 197.193 15.4598 197.396 15.6264C197.599 15.8116 197.692 16.0524 197.692 16.3487C197.692 16.5709 197.636 16.7561 197.525 16.9227C197.415 17.0894 197.267 17.2005 197.064 17.2561L197.895 18.5339H197.304V18.5524ZM196.14 15.7746V16.9413H196.584C196.787 16.9413 196.934 16.8857 197.045 16.7746C197.156 16.6635 197.193 16.5339 197.193 16.3487C197.193 15.9598 196.99 15.7746 196.565 15.7746H196.14Z" fill="#040081"/>
<path d="M49.5297 0.015625C49.5297 0.145255 49.5297 0.274884 49.5297 0.385995C49.5297 4.68229 49.5297 8.97859 49.5297 13.2749C49.5297 17.1267 47.092 20.6823 43.4725 21.9971C41.7181 22.6267 39.9268 23.1453 38.1539 23.7193C34.2943 24.9601 30.4161 26.1823 26.5565 27.423C24.839 27.9601 23.1401 28.5712 21.4041 29.0341C17.2121 30.1267 12.6322 27.9601 10.7116 24.0897C10.0099 22.6823 9.65898 21.1823 9.67745 19.6267C9.71439 15.423 12.3367 11.9045 16.3441 10.6267C22.7522 8.5897 29.1419 6.53414 35.5316 4.49711C40.1668 3.01563 44.7836 1.53414 49.4189 0.0711783C49.4374 0.0341413 49.4743 0.0341435 49.5297 0.015625Z" fill="#040081"/>
<path d="M0 59.1459C0 59.0162 0 58.8866 0 58.7755C0 54.5162 0 50.257 0 45.9792C0 42.1459 2.41921 38.6274 6.00185 37.3311C7.73777 36.7014 9.52909 36.1829 11.2835 35.6273C15.1247 34.4051 18.9658 33.1829 22.7885 31.9607C24.4875 31.4236 26.1865 30.8125 27.904 30.3681C32.0591 29.2755 36.6205 31.4237 38.5226 35.2755C39.2244 36.6829 39.5568 38.1459 39.5568 39.7199C39.5199 43.9051 36.916 47.3866 32.9271 48.6644C26.5743 50.6829 20.2216 52.7199 13.8689 54.7385C9.27055 56.2014 4.67221 57.6644 0.0738692 59.1459C0.0738692 59.1273 0.0554017 59.1273 0 59.1459Z" fill="#FF8109"/>
<path d="M196.583 20.4421C194.755 20.4421 193.259 18.9421 193.259 17.1087C193.259 15.2754 194.755 13.7754 196.583 13.7754C198.411 13.7754 199.907 15.2754 199.907 17.1087C199.925 18.9421 198.43 20.4421 196.583 20.4421ZM196.583 14.3495C195.069 14.3495 193.831 15.5902 193.831 17.1087C193.831 18.6272 195.069 19.868 196.583 19.868C198.097 19.868 199.335 18.6272 199.335 17.1087C199.353 15.5902 198.116 14.3495 196.583 14.3495Z" fill="#040081"/>
</g>
<defs>
<clipPath id="clip0_1086_5861">
<rect width="200" height="59.2592" fill="white"/>
</clipPath>
</defs>
</svg>
