<svg width="116" height="24" viewBox="0 0 116 24" fill="none" xmlns="http://www.w3.org/2000/svg">
<path d="M14.5901 20.803C17.106 18.3612 23.1243 12.4899 25.7043 9.97881C25.4871 9.77779 21.6464 5.98602 21.52 5.95656L14.5883 12.7083L7.62812 5.9375L3.46875 9.97881L14.5901 20.803ZM5.09617 9.97881L7.6299 7.51625L14.5919 14.2905L21.5503 7.51105L24.0786 9.97535L14.5901 19.2173L5.09617 9.97881Z" fill="#329700"/>
<path d="M21.9293 2.73828L14.5898 9.88163L7.25041 2.73828L0 9.79499L14.5898 24.0002L29.1797 9.79499L21.9293 2.73828ZM7.25041 4.32223C7.65637 4.71735 14.4812 11.3599 14.5898 11.4656L21.9293 4.32223L27.5523 9.79499L21.0265 16.1481L14.5898 22.4163L1.62742 9.79499L7.25041 4.32223Z" fill="#329700"/>
<path d="M14.5861 17.5481L22.7037 9.64744L21.8899 8.85547C21.8436 8.89879 14.6253 15.9278 14.5861 15.9642L7.28051 8.85547L6.4668 9.64744L14.5861 17.5481Z" fill="#329700"/>
<path d="M21.9333 2.73811L21.1107 3.53875C19.3105 1.97733 17.0101 1.11951 14.5939 1.11951C12.1777 1.11951 9.86649 1.98773 8.07704 3.53875L7.25977 2.74331C9.26111 0.979135 11.8661 0 14.5939 0C17.3217 0 19.932 0.986067 21.9333 2.73811Z" fill="#F87300"/>
<path d="M20.2305 4.39125L19.4078 5.19189C18.0617 4.06719 16.3702 3.45718 14.5879 3.45718C12.8056 3.45718 11.114 4.06719 9.76793 5.19189L8.94531 4.39125C10.5104 3.05859 12.494 2.33594 14.5879 2.33594C16.6818 2.33594 18.6653 3.05859 20.2305 4.39125Z" fill="#F87300"/>
<path d="M18.1412 6.42444L17.3132 7.23027C16.5369 6.63759 15.5879 6.31699 14.5872 6.31699C13.5865 6.31699 12.6375 6.63586 11.8612 7.23027L11.0332 6.42444C12.0392 5.629 13.282 5.19922 14.5872 5.19922C15.8923 5.19922 17.1352 5.63073 18.1412 6.42444Z" fill="#F87300"/>
<path d="M43.9568 3.98828L40.1286 14.147H37.586L33.7578 3.98828H36.0013L38.8733 12.0657L41.7293 3.98828H43.9568Z" fill="#282751"/>
<path d="M43.4474 7.91442C43.7822 7.28361 44.2344 6.79838 44.8078 6.45872C45.3811 6.11905 46.0221 5.94922 46.729 5.94922C47.3468 5.94922 47.8881 6.07053 48.3511 6.31315C48.814 6.55576 49.1861 6.86077 49.4657 7.22989V6.08093H51.5739V14.1445H49.4657V12.9661C49.1968 13.3439 48.8247 13.6575 48.3511 13.9053C47.8774 14.1532 47.3308 14.2762 46.713 14.2762C46.015 14.2762 45.3793 14.1012 44.806 13.7511C44.2327 13.401 43.7786 12.9089 43.4456 12.2746C43.1109 11.6386 42.9453 10.909 42.9453 10.0841C42.9453 9.25921 43.1127 8.54696 43.4456 7.91615L43.4474 7.91442ZM49.1683 8.83983C48.9689 8.4863 48.7001 8.21423 48.3618 8.02533C48.0234 7.83644 47.6584 7.74112 47.2703 7.74112C46.8821 7.74112 46.5224 7.83297 46.193 8.0184C45.8636 8.20383 45.5966 8.47244 45.3936 8.82597C45.1888 9.1795 45.0873 9.60061 45.0873 10.0858C45.0873 10.5711 45.1888 10.9957 45.3936 11.3596C45.5983 11.7235 45.8672 12.0025 46.2019 12.1966C46.5367 12.3907 46.8928 12.4878 47.2721 12.4878C47.6513 12.4878 48.0252 12.3924 48.3635 12.2035C48.7018 12.0147 48.9725 11.7426 49.1701 11.389C49.3678 11.0355 49.4693 10.6109 49.4693 10.1153C49.4693 9.61967 49.3695 9.19683 49.1701 8.84157L49.1683 8.83983Z" fill="#282751"/>
<path d="M60.4027 6.07812L55.2729 17.956H53.0455L54.8403 13.9389L51.5195 6.07812H53.8681L56.0065 11.7103L58.1752 6.07812H60.4027Z" fill="#282751"/>
<path d="M60.3381 7.91442C60.6728 7.28361 61.1251 6.79838 61.6984 6.45872C62.2717 6.11905 62.9127 5.94922 63.6196 5.94922C64.2375 5.94922 64.7788 6.07053 65.2417 6.31315C65.7046 6.55576 66.0768 6.86077 66.3563 7.22989V6.08093H68.4645V14.1445H66.3563V12.9661C66.0875 13.3439 65.7153 13.6575 65.2417 13.9053C64.7681 14.1532 64.2214 14.2762 63.6036 14.2762C62.9056 14.2762 62.27 14.1012 61.6966 13.7511C61.1233 13.401 60.6692 12.9089 60.3363 12.2746C60.0015 11.6386 59.8359 10.909 59.8359 10.0841C59.8359 9.25921 60.0033 8.54696 60.3363 7.91615L60.3381 7.91442ZM66.059 8.83983C65.8595 8.4863 65.5907 8.21423 65.2524 8.02533C64.9141 7.83644 64.5491 7.74112 64.1609 7.74112C63.7727 7.74112 63.4131 7.83297 63.0837 8.0184C62.7543 8.20383 62.4872 8.47244 62.2842 8.82597C62.0794 9.1795 61.9779 9.60061 61.9779 10.0858C61.9779 10.5711 62.0794 10.9957 62.2842 11.3596C62.489 11.7235 62.7578 12.0025 63.0926 12.1966C63.4273 12.3907 63.7834 12.4878 64.1627 12.4878C64.5419 12.4878 64.9159 12.3924 65.2542 12.2035C65.5925 12.0147 65.8631 11.7426 66.0607 11.389C66.2584 11.0355 66.3599 10.6109 66.3599 10.1153C66.3599 9.61967 66.2602 9.19683 66.0607 8.84157L66.059 8.83983Z" fill="#282751"/>
<path d="M75.704 6.36395C76.1919 6.63083 76.5747 7.02422 76.8489 7.54238C77.1231 8.06228 77.2602 8.68442 77.2602 9.41227V14.1433H75.1663V9.68955C75.1663 9.05008 75.0025 8.55618 74.6731 8.21305C74.3437 7.86818 73.895 7.69662 73.327 7.69662C72.759 7.69662 72.2925 7.86818 71.9595 8.21305C71.6248 8.55791 71.4592 9.05008 71.4592 9.68955V14.1433H69.3652V3.37109H71.4592V7.08314C71.728 6.73308 72.0877 6.45927 72.5364 6.25997C72.9851 6.06068 73.4837 5.9619 74.0321 5.9619C74.6606 5.9619 75.2179 6.09534 75.7076 6.36222L75.704 6.36395Z" fill="#282751"/>
<path d="M88.158 3.99219L84.3298 14.1509H81.7872L77.959 3.99219H80.2025L83.0745 12.0696L85.9305 3.99219H88.158Z" fill="#282751"/>
<path d="M89.5562 4.77929C89.3123 4.55054 89.1895 4.26806 89.1895 3.92667C89.1895 3.58527 89.3123 3.30279 89.5562 3.07577C89.8002 2.84702 90.1064 2.73438 90.4768 2.73438C90.8471 2.73438 91.1516 2.84875 91.3956 3.07577C91.6395 3.30279 91.7623 3.587 91.7623 3.92667C91.7623 4.26633 91.6395 4.55054 91.3956 4.77929C91.1516 5.00805 90.8454 5.12069 90.4768 5.12069C90.1082 5.12069 89.8002 5.00631 89.5562 4.77929ZM91.5077 6.0825V14.1461H89.4138V6.0825H91.5077Z" fill="#282751"/>
<path d="M97.8996 14.1433L95.0881 10.7085V14.1433H92.9941V3.37109H95.0881V9.49892L97.8693 6.07801H100.592L96.9434 10.1245L100.622 14.1416H97.8996V14.1433Z" fill="#282751"/>
<path d="M100.541 7.91442C100.874 7.28361 101.328 6.79838 101.902 6.45872C102.475 6.11905 103.114 5.94922 103.823 5.94922C104.441 5.94922 104.982 6.07053 105.445 6.31315C105.91 6.55576 106.28 6.86077 106.559 7.22989V6.08093H108.668V14.1445H106.559V12.9661C106.291 13.3439 105.918 13.6575 105.445 13.9053C104.971 14.1532 104.425 14.2762 103.807 14.2762C103.109 14.2762 102.473 14.1012 101.9 13.7511C101.326 13.401 100.872 12.9089 100.539 12.2746C100.205 11.6386 100.039 10.909 100.039 10.0841C100.039 9.25921 100.206 8.54696 100.539 7.91615L100.541 7.91442ZM106.262 8.83983C106.063 8.4863 105.794 8.21423 105.456 8.02533C105.115 7.83644 104.752 7.74112 104.364 7.74112C103.976 7.74112 103.616 7.83297 103.287 8.0184C102.957 8.2021 102.69 8.47244 102.487 8.82597C102.283 9.1795 102.181 9.60061 102.181 10.0858C102.181 10.5711 102.283 10.9957 102.487 11.3596C102.692 11.7235 102.961 12.0025 103.296 12.1966C103.629 12.3907 103.985 12.4878 104.364 12.4878C104.743 12.4878 105.117 12.3924 105.456 12.2035C105.794 12.0147 106.063 11.7426 106.262 11.389C106.462 11.0355 106.561 10.6109 106.561 10.1153C106.561 9.61967 106.462 9.19683 106.262 8.84157V8.83983Z" fill="#282751"/>
<path d="M110.918 13.9192C110.38 13.6818 109.953 13.3594 109.639 12.9505C109.326 12.5432 109.153 12.0909 109.123 11.597H111.231C111.27 11.9072 111.427 12.1637 111.701 12.3682C111.975 12.5727 112.317 12.6732 112.725 12.6732C113.133 12.6732 113.436 12.5952 113.66 12.441C113.884 12.2867 113.996 12.0874 113.996 11.8448C113.996 11.5831 113.859 11.3856 113.585 11.2556C113.311 11.1256 112.875 10.9818 112.276 10.8258C111.659 10.6803 111.153 10.5295 110.759 10.3753C110.366 10.221 110.026 9.98187 109.743 9.66127C109.46 9.34066 109.317 8.90915 109.317 8.36673C109.317 7.91962 109.449 7.51237 109.712 7.14324C109.976 6.77412 110.355 6.48298 110.85 6.26982C111.343 6.05666 111.924 5.94922 112.592 5.94922C113.58 5.94922 114.367 6.18837 114.954 6.67014C115.542 7.15017 115.866 7.79831 115.927 8.61281H113.922C113.891 8.29221 113.754 8.03746 113.51 7.84857C113.266 7.65967 112.939 7.56436 112.531 7.56436C112.152 7.56436 111.86 7.63194 111.655 7.76885C111.45 7.90576 111.349 8.09465 111.349 8.33553C111.349 8.60761 111.488 8.81384 111.767 8.95421C112.047 9.09458 112.479 9.23842 113.069 9.38399C113.667 9.52956 114.16 9.68033 114.55 9.8363C114.94 9.99227 115.275 10.2314 115.56 10.5555C115.845 10.8813 115.991 11.3111 116.001 11.8448C116.001 12.311 115.87 12.7269 115.604 13.096C115.341 13.4652 114.961 13.7546 114.468 13.9625C113.975 14.1722 113.398 14.2762 112.741 14.2762C112.084 14.2762 111.456 14.1566 110.916 13.9192H110.918Z" fill="#282751"/>
<path d="M64.6895 16.2727V17.5776H66.1513V17.997H64.6895V19.3401H66.3223V19.7594H64.166V15.8516H66.3223V16.2709H64.6895V16.2727Z" fill="#F87300"/>
<path d="M71.2152 16.784C71.4075 16.8828 71.5589 17.0318 71.6693 17.2294C71.7797 17.427 71.8366 17.6678 71.8366 17.9521V19.7596H71.3185V18.0248C71.3185 17.7181 71.2401 17.4841 71.0852 17.323C70.9303 17.1618 70.7202 17.0786 70.4549 17.0786C70.1896 17.0786 69.9653 17.1635 69.805 17.3334C69.6448 17.5032 69.5629 17.7493 69.5629 18.0699V19.7596H69.0447V18.0248C69.0447 17.7181 68.9664 17.4841 68.8115 17.323C68.6566 17.1618 68.4465 17.0786 68.1812 17.0786C67.9159 17.0786 67.6915 17.1635 67.5313 17.3334C67.3692 17.5032 67.2891 17.7493 67.2891 18.0699V19.7596H66.7656V16.6922H67.2891V17.1341C67.3924 16.9729 67.5313 16.8499 67.7058 16.765C67.8803 16.6783 68.0726 16.6367 68.2844 16.6367C68.5497 16.6367 68.783 16.6939 68.986 16.81C69.189 16.9261 69.3403 17.096 69.44 17.3195C69.529 17.1029 69.6733 16.9348 69.878 16.8152C70.081 16.6956 70.3071 16.6367 70.5564 16.6367C70.8057 16.6367 71.0211 16.687 71.2117 16.7858L71.2152 16.784Z" fill="#F87300"/>
<path d="M73.3399 16.8213C73.5447 16.7035 73.7833 16.6445 74.0557 16.6445C74.3282 16.6445 74.5899 16.7104 74.8178 16.8404C75.0457 16.9703 75.2255 17.154 75.3555 17.3914C75.4855 17.6289 75.5514 17.9044 75.5514 18.2163C75.5514 18.5283 75.4855 18.8021 75.3555 19.0447C75.2255 19.2873 75.0457 19.4762 74.8178 19.6097C74.5899 19.7448 74.3353 19.8107 74.0557 19.8107C73.7762 19.8107 73.55 19.7518 73.3453 19.6339C73.1405 19.5161 72.9838 19.3705 72.877 19.1937V21.2144H72.3535V16.6913H72.877V17.2563C72.9803 17.0812 73.1352 16.9339 73.3399 16.8161V16.8213ZM74.873 17.6133C74.7769 17.4417 74.6469 17.3117 74.4848 17.2216C74.321 17.1315 74.143 17.0882 73.9471 17.0882C73.7513 17.0882 73.5785 17.1332 73.4147 17.2251C73.2509 17.3169 73.1209 17.4486 73.023 17.6219C72.9251 17.7952 72.877 17.9963 72.877 18.2233C72.877 18.4503 72.9251 18.6565 73.023 18.8298C73.1209 19.0031 73.2509 19.1366 73.4147 19.2267C73.5768 19.3185 73.7548 19.3636 73.9471 19.3636C74.1394 19.3636 74.321 19.3185 74.4848 19.2267C74.6469 19.1348 74.7769 19.0031 74.873 18.8298C74.9692 18.6565 75.0172 18.452 75.0172 18.2163C75.0172 17.9807 74.9692 17.7831 74.873 17.6115V17.6133Z" fill="#F87300"/>
<path d="M76.4645 19.6166C76.2241 19.4866 76.0372 19.2995 75.9001 19.0603C75.763 18.8194 75.6953 18.5404 75.6953 18.2233C75.6953 17.9061 75.7648 17.6323 75.9054 17.3914C76.0461 17.1506 76.2366 16.9651 76.477 16.8369C76.7191 16.7087 76.9898 16.6445 77.2889 16.6445C77.588 16.6445 77.8587 16.7087 78.0991 16.8369C78.3412 16.9651 78.5317 17.1488 78.6706 17.388C78.8113 17.6271 78.8807 17.9044 78.8807 18.2215C78.8807 18.5387 78.8095 18.8177 78.6653 19.0586C78.521 19.2995 78.327 19.4849 78.0813 19.6149C77.8355 19.7448 77.5631 19.8107 77.264 19.8107C76.9648 19.8107 76.7013 19.7448 76.4609 19.6149L76.4645 19.6166ZM77.7964 19.2371C77.962 19.1504 78.0937 19.0222 78.1952 18.8506C78.2967 18.6791 78.3483 18.4694 78.3483 18.2233C78.3483 17.9772 78.2985 17.7675 78.1988 17.5959C78.0991 17.4244 77.9691 17.2961 77.807 17.213C77.645 17.128 77.4723 17.0864 77.2836 17.0864C77.0948 17.0864 76.9168 17.128 76.7565 17.213C76.5963 17.2979 76.4699 17.4244 76.3737 17.5959C76.2776 17.7675 76.2295 17.9772 76.2295 18.2233C76.2295 18.4694 76.2758 18.6843 76.3701 18.8558C76.4645 19.0274 76.5892 19.1556 76.7476 19.2388C76.9043 19.322 77.077 19.3653 77.2658 19.3653C77.4545 19.3653 77.6308 19.322 77.7946 19.2371H77.7964Z" fill="#F87300"/>
<path d="M83.4317 16.6914L82.4488 19.7588H81.9075L81.149 17.3239L80.3887 19.7588H79.8474L78.8574 16.6914H79.3916L80.1163 19.2666L80.8979 16.6914H81.4321L82.1977 19.2718L82.91 16.6914H83.4281H83.4317Z" fill="#F87300"/>
<path d="M86.4636 18.4195H83.9441C83.9637 18.7211 84.0706 18.9568 84.2629 19.1283C84.4569 19.2982 84.692 19.3831 84.968 19.3831C85.1941 19.3831 85.3828 19.3311 85.5342 19.2288C85.6855 19.1266 85.7924 18.9897 85.8529 18.8181H86.4173C86.3336 19.1127 86.1645 19.3536 85.9117 19.5373C85.6588 19.721 85.3437 19.8146 84.968 19.8146C84.6688 19.8146 84.4018 19.7487 84.1649 19.6188C83.9299 19.4888 83.7447 19.3016 83.6094 19.0625C83.4741 18.8233 83.4082 18.5426 83.4082 18.2255C83.4082 17.9083 83.4741 17.6293 83.6041 17.3919C83.734 17.1527 83.9174 16.969 84.1542 16.8408C84.3893 16.7126 84.6617 16.6484 84.968 16.6484C85.2742 16.6484 85.5324 16.7126 85.7621 16.8391C85.9918 16.9656 86.1698 17.1406 86.2945 17.3624C86.4191 17.5842 86.4814 17.8355 86.4814 18.1145C86.4814 18.2116 86.4761 18.3138 86.4636 18.423V18.4195ZM85.8084 17.5045C85.7194 17.3642 85.6001 17.2584 85.4487 17.1857C85.2974 17.1129 85.13 17.0765 84.9448 17.0765C84.6795 17.0765 84.4552 17.1579 84.2682 17.3226C84.083 17.4872 83.9762 17.7142 83.9495 18.0054H85.9401C85.9401 17.8113 85.8956 17.6432 85.8084 17.5045Z" fill="#F87300"/>
<path d="M87.741 16.7823C87.912 16.6852 88.1203 16.6367 88.3642 16.6367V17.1635H88.2253C87.6378 17.1635 87.3457 17.4737 87.3457 18.0924V19.7613H86.8223V16.6939H87.3457V17.1913C87.4383 17.0162 87.5683 16.8793 87.7393 16.7823H87.741Z" fill="#F87300"/>
<path d="M88.6365 16.0927C88.567 16.0251 88.5332 15.9436 88.5332 15.8466C88.5332 15.7495 88.567 15.6681 88.6365 15.6005C88.7059 15.5329 88.7896 15.5 88.8893 15.5C88.989 15.5 89.0674 15.5329 89.1332 15.6005C89.1991 15.6681 89.233 15.7495 89.233 15.8466C89.233 15.9436 89.1991 16.0251 89.1332 16.0927C89.0674 16.1603 88.9855 16.1932 88.8893 16.1932C88.7932 16.1932 88.7059 16.1603 88.6365 16.0927ZM89.1439 16.6923V19.7597H88.6205V16.6923H89.1439Z" fill="#F87300"/>
<path d="M92.1573 16.9747C92.3941 17.1999 92.5134 17.5257 92.5134 17.9521V19.7596H91.9953V18.0248C91.9953 17.7181 91.9169 17.4841 91.7602 17.323C91.6035 17.1601 91.3881 17.0786 91.1157 17.0786C90.8432 17.0786 90.6207 17.1635 90.4569 17.3299C90.2931 17.4963 90.2129 17.7424 90.2129 18.063V19.7596H89.6895V16.6922H90.2129V17.1289C90.3162 16.9729 90.4569 16.8516 90.6349 16.765C90.813 16.6783 91.0088 16.6367 91.2243 16.6367C91.6071 16.6367 91.9187 16.7494 92.1555 16.9764L92.1573 16.9747Z" fill="#F87300"/>
<path d="M95.0454 16.8178C95.2502 16.9339 95.4033 17.0795 95.503 17.2545V16.6948H96.0319V19.8298C96.0319 20.1105 95.9695 20.3583 95.8485 20.5767C95.7256 20.795 95.5493 20.9666 95.3214 21.0896C95.0935 21.2127 94.8282 21.2751 94.5255 21.2751C94.1106 21.2751 93.7652 21.1797 93.4892 20.9891C93.2132 20.7985 93.0494 20.5385 93.0014 20.211H93.5195C93.5765 20.3982 93.6958 20.5472 93.8756 20.6616C94.0554 20.776 94.2727 20.8314 94.5255 20.8314C94.814 20.8314 95.0472 20.7448 95.2306 20.568C95.4122 20.393 95.503 20.1452 95.503 19.828V19.1851C95.3998 19.3636 95.2466 19.5126 95.0437 19.6322C94.8407 19.7518 94.6021 19.8107 94.3297 19.8107C94.0572 19.8107 93.7955 19.7448 93.5676 19.6097C93.3397 19.4745 93.1598 19.2873 93.0298 19.0447C92.8999 18.8021 92.834 18.5265 92.834 18.2163C92.834 17.9061 92.8999 17.6271 93.0298 17.3914C93.1598 17.154 93.3397 16.9703 93.5676 16.8404C93.7955 16.7104 94.0501 16.6445 94.3297 16.6445C94.6092 16.6445 94.8407 16.7017 95.0454 16.8178ZM95.3588 17.6185C95.2627 17.4469 95.1327 17.3152 94.9706 17.2233C94.8068 17.1315 94.6288 17.0864 94.4329 17.0864C94.2371 17.0864 94.059 17.1315 93.8988 17.2199C93.7385 17.31 93.6085 17.44 93.5142 17.6115C93.4198 17.7831 93.3699 17.9841 93.3699 18.2163C93.3699 18.4486 93.418 18.6565 93.5142 18.8298C93.6103 19.0031 93.7385 19.1366 93.8988 19.2267C94.0608 19.3185 94.2388 19.3636 94.4329 19.3636C94.627 19.3636 94.8068 19.3185 94.9706 19.2267C95.1327 19.1348 95.2627 19.0031 95.3588 18.8298C95.455 18.6565 95.503 18.4538 95.503 18.2233C95.503 17.9928 95.455 17.79 95.3588 17.6185Z" fill="#F87300"/>
<path d="M98.3252 19.664C98.1151 19.5722 97.9531 19.4457 97.8338 19.2828C97.7145 19.1199 97.654 18.9327 97.6504 18.7196H98.2077C98.2273 18.9015 98.3039 19.0558 98.441 19.1805C98.5781 19.3053 98.7757 19.3677 99.0357 19.3677C99.2956 19.3677 99.4808 19.307 99.625 19.1857C99.7693 19.0644 99.8405 18.9085 99.8405 18.7178C99.8405 18.5688 99.7977 18.4475 99.7141 18.3539C99.6304 18.2603 99.5235 18.1893 99.3971 18.1407C99.2707 18.0922 99.0998 18.0402 98.8861 17.983C98.6208 17.9155 98.4089 17.8479 98.2504 17.782C98.092 17.7144 97.9549 17.6087 97.8409 17.4649C97.7287 17.321 97.6718 17.1287 97.6718 16.8861C97.6718 16.6729 97.727 16.484 97.8391 16.3211C97.9513 16.1582 98.1062 16.03 98.3074 15.9399C98.5086 15.8497 98.7401 15.8047 99.0001 15.8047C99.3757 15.8047 99.6838 15.8965 99.9224 16.0785C100.163 16.2605 100.298 16.5031 100.328 16.8064H99.7532C99.7336 16.6573 99.6535 16.5256 99.5111 16.4112C99.3686 16.2969 99.1817 16.2414 98.9466 16.2414C98.7276 16.2414 98.5496 16.2969 98.4125 16.406C98.2754 16.5152 98.2059 16.6694 98.2059 16.867C98.2059 17.0091 98.2469 17.1252 98.3288 17.2136C98.4107 17.302 98.5122 17.3713 98.6333 17.4181C98.7543 17.4649 98.9235 17.5186 99.1425 17.5775C99.4078 17.6486 99.6197 17.7179 99.7817 17.7872C99.9437 17.8565 100.081 17.9622 100.197 18.1061C100.312 18.2499 100.369 18.444 100.369 18.6918C100.369 18.8825 100.318 19.061 100.214 19.2291C100.111 19.3972 99.958 19.5323 99.755 19.638C99.552 19.7438 99.3117 19.7957 99.0357 19.7957C98.7597 19.7957 98.5336 19.7507 98.3252 19.6588V19.664Z" fill="#F87300"/>
<path d="M103.655 18.4195H101.136C101.155 18.7211 101.262 18.9568 101.454 19.1283C101.647 19.2999 101.883 19.3831 102.159 19.3831C102.386 19.3831 102.574 19.3311 102.726 19.2288C102.877 19.1266 102.984 18.9897 103.046 18.8181H103.609C103.525 19.1127 103.356 19.3536 103.103 19.5373C102.85 19.721 102.535 19.8146 102.159 19.8146C101.86 19.8146 101.593 19.7487 101.356 19.6188C101.12 19.4888 100.936 19.3016 100.801 19.0625C100.665 18.8233 100.6 18.5426 100.6 18.2255C100.6 17.9083 100.665 17.6293 100.795 17.3919C100.925 17.1527 101.109 16.969 101.346 16.8408C101.581 16.7126 101.853 16.6484 102.159 16.6484C102.466 16.6484 102.722 16.7126 102.954 16.8391C103.183 16.9656 103.361 17.1406 103.486 17.3624C103.611 17.5842 103.673 17.8355 103.673 18.1145C103.673 18.2116 103.668 18.3138 103.655 18.423V18.4195ZM103 17.5045C102.911 17.3642 102.791 17.2584 102.64 17.1857C102.489 17.1129 102.32 17.0765 102.136 17.0765C101.871 17.0765 101.647 17.1579 101.46 17.3226C101.274 17.4872 101.168 17.7142 101.141 18.0054H103.132C103.132 17.8113 103.087 17.6432 103 17.5045Z" fill="#F87300"/>
<path d="M106.482 16.9747C106.718 17.1999 106.838 17.5257 106.838 17.9521V19.7596H106.319V18.0248C106.319 17.7181 106.241 17.4841 106.084 17.323C105.928 17.1618 105.712 17.0786 105.44 17.0786C105.167 17.0786 104.945 17.1635 104.781 17.3299C104.617 17.4963 104.537 17.7424 104.537 18.063V19.7596H104.014V16.6922H104.537V17.1289C104.64 16.9729 104.781 16.8516 104.959 16.765C105.137 16.6783 105.333 16.6367 105.549 16.6367C105.931 16.6367 106.243 16.7494 106.48 16.9764L106.482 16.9747Z" fill="#F87300"/>
<path d="M107.375 16.0927C107.305 16.0251 107.271 15.9436 107.271 15.8466C107.271 15.7495 107.305 15.6681 107.375 15.6005C107.444 15.5329 107.528 15.5 107.628 15.5C107.727 15.5 107.804 15.5329 107.872 15.6005C107.939 15.6681 107.971 15.7495 107.971 15.8466C107.971 15.9436 107.937 16.0251 107.872 16.0927C107.804 16.1603 107.722 16.1932 107.628 16.1932C107.533 16.1932 107.444 16.1603 107.375 16.0927ZM107.88 16.6923V19.7597H107.357V16.6923H107.88Z" fill="#F87300"/>
<path d="M108.99 19.6166C108.75 19.4866 108.563 19.2995 108.425 19.0603C108.288 18.8212 108.221 18.5404 108.221 18.2233C108.221 17.9061 108.29 17.6323 108.431 17.3914C108.571 17.1506 108.762 16.9651 109.002 16.8369C109.245 16.7087 109.515 16.6445 109.814 16.6445C110.113 16.6445 110.384 16.7087 110.626 16.8369C110.868 16.9651 111.059 17.1488 111.198 17.388C111.338 17.6271 111.408 17.9044 111.408 18.2215C111.408 18.5387 111.337 18.8177 111.192 19.0586C111.048 19.2995 110.854 19.4849 110.608 19.6149C110.363 19.7448 110.09 19.8107 109.791 19.8107C109.492 19.8107 109.228 19.7448 108.99 19.6149V19.6166ZM110.322 19.2371C110.487 19.1504 110.621 19.0222 110.722 18.8506C110.824 18.6791 110.874 18.4694 110.874 18.2233C110.874 17.9772 110.824 17.7675 110.724 17.5959C110.624 17.4244 110.494 17.2961 110.332 17.213C110.17 17.128 109.996 17.0864 109.809 17.0864C109.622 17.0864 109.442 17.128 109.282 17.213C109.122 17.2979 108.995 17.4244 108.899 17.5959C108.803 17.7675 108.755 17.9772 108.755 18.2233C108.755 18.4694 108.801 18.6843 108.896 18.8558C108.99 19.0274 109.115 19.1556 109.271 19.2388C109.428 19.322 109.601 19.3653 109.789 19.3653C109.978 19.3653 110.154 19.322 110.318 19.2371H110.322Z" fill="#F87300"/>
<path d="M112.675 16.7823C112.846 16.6852 113.054 16.6367 113.298 16.6367V17.1635H113.159C112.571 17.1635 112.279 17.4737 112.279 18.0924V19.7613H111.756V16.6939H112.279V17.1913C112.372 17.0162 112.504 16.8793 112.673 16.7823H112.675Z" fill="#F87300"/>
<path d="M114.022 19.6907C113.83 19.611 113.679 19.4983 113.568 19.3545C113.458 19.2106 113.395 19.046 113.385 18.8588H113.926C113.942 19.0113 114.015 19.1361 114.147 19.2332C114.279 19.3302 114.453 19.3787 114.667 19.3787C114.866 19.3787 115.023 19.3354 115.139 19.2505C115.254 19.1638 115.311 19.0564 115.311 18.9264C115.311 18.7965 115.251 18.6925 115.128 18.6266C115.005 18.5608 114.815 18.4966 114.558 18.4325C114.325 18.3736 114.134 18.313 113.987 18.2506C113.839 18.1882 113.712 18.0981 113.607 17.9768C113.502 17.8554 113.449 17.696 113.449 17.4985C113.449 17.3425 113.497 17.1986 113.593 17.0669C113.689 16.937 113.825 16.833 114.001 16.755C114.177 16.6787 114.378 16.6406 114.604 16.6406C114.953 16.6406 115.235 16.7273 115.45 16.8988C115.666 17.0704 115.78 17.3061 115.796 17.6042H115.272C115.26 17.443 115.194 17.3148 115.073 17.2177C114.952 17.1207 114.79 17.0721 114.587 17.0721C114.4 17.0721 114.248 17.112 114.138 17.19C114.028 17.268 113.972 17.3702 113.972 17.4985C113.972 17.599 114.006 17.6821 114.072 17.748C114.14 17.8139 114.223 17.8658 114.325 17.9057C114.426 17.9438 114.567 17.9889 114.749 18.0374C114.975 18.0981 115.158 18.1553 115.301 18.2142C115.441 18.2714 115.564 18.3597 115.666 18.4741C115.767 18.5902 115.821 18.741 115.824 18.9282C115.824 19.0963 115.776 19.247 115.68 19.3822C115.584 19.5174 115.448 19.6214 115.274 19.6976C115.099 19.7739 114.9 19.812 114.672 19.812C114.43 19.812 114.215 19.7721 114.022 19.6924V19.6907Z" fill="#F87300"/>
</svg>
